<?xml version="1.0" encoding="UTF-8"?>
<svg version="1.1" xmlns="http://www.w3.org/2000/svg" width="512" height="512">
<path d="M0 0 C1.29421875 0.00185303 2.5884375 0.00370605 3.921875 0.00561523 C4.96456543 0.00343239 4.96456543 0.00343239 6.02832031 0.00120544 C7.49418338 0.00286129 8.96006439 0.01438763 10.42578125 0.03515625 C12.66481647 0.06411768 14.9014829 0.05576004 17.140625 0.04272461 C18.5677198 0.04896254 19.99480714 0.05735392 21.421875 0.06811523 C23.36320313 0.08273804 23.36320313 0.08273804 25.34375 0.09765625 C29.01708763 0.5436197 30.18858975 0.81082076 32.671875 3.50170898 C33.07041317 6.30283505 33.20778518 8.71435221 33.17308044 11.51771545 C33.17861484 12.34374517 33.18414924 13.16977489 33.18985134 14.02083582 C33.20350387 16.79869851 33.18846406 19.57566984 33.17358398 22.35351562 C33.17736546 24.34083947 33.18286409 26.32816068 33.18995667 28.31547546 C33.20394994 33.72032991 33.19271472 39.1248674 33.17624545 44.52970433 C33.16242583 50.17690502 33.16885142 55.82408674 33.17237854 61.47129822 C33.17508289 70.95487597 33.16158496 80.43832732 33.13842773 89.921875 C33.11180897 100.89928067 33.11007251 111.87647504 33.1218161 122.85390192 C33.13257994 133.39863045 33.12641827 143.94328226 33.11226082 154.48800468 C33.10648967 158.9828109 33.10659252 163.47756117 33.11132622 167.97236824 C33.11608428 173.26076519 33.1060431 178.54892952 33.08437157 183.83728218 C33.07878778 185.78279333 33.07835288 187.72832676 33.08332443 189.67383957 C33.08924128 192.32038343 33.07684218 194.96620737 33.05955505 197.61268616 C33.06857012 198.77983543 33.06857012 198.77983543 33.07776731 199.97056347 C33.05219173 202.1092844 33.05219173 202.1092844 32.671875 205.50170898 C29.02129797 207.935427 26.26948082 207.80784422 22.046875 207.80249023 C21.30356934 207.80677536 20.56026367 207.81106049 19.79443359 207.81547546 C18.22429421 207.82121349 16.65412825 207.82172289 15.08398438 207.81738281 C12.68052951 207.81422037 10.2783029 207.83769516 7.875 207.86303711 C6.34895989 207.86530991 4.82291646 207.86601369 3.296875 207.86499023 C2.57806152 207.87419998 1.85924805 207.88340973 1.11865234 207.89289856 C-3.84988473 207.84676236 -3.84988473 207.84676236 -6.0202179 206.28085327 C-7.73704399 203.94545703 -7.6909402 202.54674675 -7.66870117 199.66308594 C-7.66833862 198.6686145 -7.66797607 197.67414307 -7.66760254 196.64953613 C-7.65225464 195.60688599 -7.63690674 194.56423584 -7.62109375 193.48999023 C-7.61807251 192.52975952 -7.61505127 191.56952881 -7.61193848 190.5802002 C-7.59623609 186.99142721 -7.55435211 183.40280736 -7.515625 179.81420898 C-7.45375 171.79108398 -7.391875 163.76795898 -7.328125 155.50170898 C-31.748125 155.50170898 -56.168125 155.50170898 -81.328125 155.50170898 C-81.328125 157.81170898 -81.328125 160.12170898 -81.328125 162.50170898 C-83.15114133 168.37587271 -85.49450569 171.00504821 -90.328125 174.50170898 C-93.48988199 176.08258748 -96.89716176 175.70696563 -100.37109375 175.73999023 C-101.1729158 175.74806198 -101.97473785 175.75613373 -102.80085754 175.76445007 C-104.50141233 175.77829351 -106.20199493 175.78901451 -107.90258789 175.796875 C-110.48833966 175.81402798 -113.07279259 175.85790245 -115.65820312 175.90209961 C-117.31249062 175.91223213 -118.96678897 175.92074648 -120.62109375 175.92749023 C-121.38802048 175.94499832 -122.1549472 175.96250641 -122.94511414 175.98054504 C-128.52529589 175.95829707 -131.72357622 174.67979163 -136.328125 171.50170898 C-142.08514825 165.00660583 -140.68180096 156.68537762 -140.328125 148.50170898 C-169.27033908 150.29986144 -193.49476725 155.62183014 -216.328125 174.50170898 C-217.05773437 175.08436523 -217.78734375 175.66702148 -218.5390625 176.26733398 C-231.49652332 187.08795039 -240.92926785 202.16257768 -246.640625 217.93920898 C-246.87104492 218.56988281 -247.10146484 219.20055664 -247.33886719 219.8503418 C-252.36283496 234.65666091 -252.73942798 248.93067141 -252.62109375 264.40405273 C-252.61548597 266.57979538 -252.61122147 268.75554186 -252.60823059 270.93128967 C-252.59687482 276.60788769 -252.56748923 282.28424881 -252.53411865 287.96075439 C-252.50321603 293.77320147 -252.48968244 299.5856875 -252.47460938 305.39819336 C-252.44260917 316.76613496 -252.39152735 328.13390213 -252.328125 339.50170898 C-251.20949002 338.25416256 -250.09528387 337.0026442 -248.98291016 335.74951172 C-248.36195465 335.0530101 -247.74099915 334.35650848 -247.10122681 333.63890076 C-244.50650216 330.51137354 -242.60397836 327.14113053 -240.703125 323.56420898 C-240.32196533 322.86980713 -239.94080566 322.17540527 -239.5480957 321.45996094 C-237.93260084 318.51158815 -236.35179158 315.54664553 -234.78515625 312.57202148 C-234.36621094 311.78569336 -233.94726562 310.99936523 -233.515625 310.18920898 C-233.17917969 309.53307617 -232.84273437 308.87694336 -232.49609375 308.20092773 C-231.02443966 306.05989252 -229.53677658 304.86371079 -227.328125 303.50170898 C-222.37716641 302.87301583 -220.46125971 302.72267887 -216.328125 305.56420898 C-213.80882265 309.26443431 -213.6214909 311.10487459 -214.328125 315.50170898 C-216.74472087 319.43986522 -219.42903748 321.18333262 -223.328125 323.50170898 C-224.52684772 327.09787715 -224.05312787 327.79092538 -222.515625 331.12670898 C-222.15855469 331.92334961 -221.80148438 332.71999023 -221.43359375 333.54077148 C-220.48067886 335.65856796 -220.48067886 335.65856796 -218.328125 336.50170898 C-215.81774146 336.35800712 -213.33123219 336.16282294 -210.828125 335.93920898 C-202.42074983 335.33921789 -195.00938809 334.84634063 -188.265625 340.62670898 C-186.93827481 341.90311038 -185.6264482 343.19579325 -184.328125 344.50170898 C-177.90907345 351.17260979 -177.90907345 351.17260979 -169.328125 353.50170898 C-162.838125 354.16170898 -162.838125 354.16170898 -160.453125 355.75170898 C-158.94349155 358.10002768 -158.46149445 359.70095047 -158.328125 362.50170898 C-159.587878 365.35272892 -160.68694701 367.03151179 -163.203125 368.87670898 C-166.02653886 369.70712483 -167.55198638 369.4733575 -170.328125 368.50170898 C-172.69951507 366.42674268 -174.64269219 364.13747329 -176.703125 361.75170898 C-179.14177191 359.31509313 -179.14177191 359.31509313 -182.203125 358.81420898 C-186.64041186 359.79041209 -189.32901998 362.15403971 -192.328125 365.50170898 C-193.3648602 367.14577647 -194.37344879 368.80867292 -195.328125 370.50170898 C-188.89693385 374.75541022 -183.35957762 377.54245806 -175.53125 377.17358398 C-170.32140985 376.08078825 -165.88005677 373.71568927 -161.26171875 371.13061523 C-154.90116648 367.59885718 -148.44696147 367.9337581 -141.328125 368.50170898 C-138.07197046 369.44389463 -135.27846593 370.85085659 -132.328125 372.50170898 C-125.68851999 376.05563861 -119.89194892 378.0863347 -112.328125 376.50170898 C-109.48178431 375.31434941 -106.75624256 373.91345886 -104.015625 372.50170898 C-95.45454233 368.11910306 -88.0385377 366.63511296 -78.51953125 369.28295898 C-75.29499014 370.50013736 -72.30816354 371.93622866 -69.32421875 373.65795898 C-63.66950629 376.85658422 -58.7660224 377.83743679 -52.328125 376.50170898 C-49.50161918 375.31539916 -46.79934433 373.91011023 -44.078125 372.50170898 C-36.08671743 368.45609755 -29.36237388 366.58423575 -20.328125 368.50170898 C-16.55620938 369.95644228 -12.98539973 371.78198175 -9.3894043 373.62109375 C-3.56745953 376.55444538 1.14279729 378.25386261 7.671875 376.50170898 C11.46526392 374.88178539 14.99608691 373.12686552 18.60546875 371.13061523 C23.94342874 368.29503649 26.21167886 368.50170898 32.671875 368.50170898 C32.671875 399.52170898 32.671875 430.54170898 32.671875 462.50170898 C29.371875 463.49170898 26.071875 464.48170898 22.671875 465.50170898 C20.53752933 466.48005215 18.42653434 467.51340801 16.359375 468.62670898 C8.93068771 472.61380149 2.22392217 473.62145741 -6.015625 471.37670898 C-10.08942041 470.0931844 -13.68831589 468.32242368 -17.453125 466.31420898 C-23.21421666 463.35262478 -26.8390007 462.29239387 -33.2421875 464.01733398 C-38.02965645 465.65766199 -42.47668777 468.03971498 -46.93359375 470.41577148 C-54.18859976 473.70596997 -61.38185687 472.85025325 -68.765625 470.49780273 C-72.15763016 469.17926415 -75.21624841 467.4775748 -78.3203125 465.58764648 C-82.71704329 463.20964812 -87.39595202 462.86796609 -92.328125 463.50170898 C-95.37242937 464.54265578 -98.16792431 465.95046465 -101.015625 467.43920898 C-110.63108254 472.33573485 -118.11353751 473.87944031 -128.6953125 470.49780273 C-132.33878553 469.11933742 -135.75945637 467.4096715 -139.19921875 465.58764648 C-143.52607174 463.3805545 -147.55104352 462.90599833 -152.328125 463.50170898 C-155.52624823 464.54790171 -158.49759334 465.95928566 -161.515625 467.43920898 C-171.31311503 472.12355806 -178.89182719 473.93626172 -189.58203125 470.56811523 C-192.67880338 469.36552805 -195.52274914 467.87732246 -198.453125 466.31420898 C-203.61801134 463.66910116 -206.57744626 462.55897476 -212.328125 463.50170898 C-215.44972635 464.61335839 -218.36800866 466.01913798 -221.328125 467.50170898 C-231.18247641 472.11541022 -238.87984519 473.94003687 -249.58203125 470.56811523 C-252.67880338 469.36552805 -255.52274914 467.87732246 -258.453125 466.31420898 C-264.21421666 463.35262478 -267.8390007 462.29239387 -274.2421875 464.01733398 C-279.02965645 465.65766199 -283.47668777 468.03971498 -287.93359375 470.41577148 C-295.18859976 473.70596997 -302.38185687 472.85025325 -309.765625 470.49780273 C-313.15763016 469.17926415 -316.21624841 467.4775748 -319.3203125 465.58764648 C-323.71704329 463.20964812 -328.39595202 462.86796609 -333.328125 463.50170898 C-336.37242937 464.54265578 -339.16792431 465.95046465 -342.015625 467.43920898 C-351.63108254 472.33573485 -359.11353751 473.87944031 -369.6953125 470.49780273 C-373.33878553 469.11933742 -376.75945637 467.4096715 -380.19921875 465.58764648 C-384.52037865 463.3834585 -388.55566614 462.89819813 -393.328125 463.50170898 C-396.37307506 464.54099508 -399.16787504 465.9504389 -402.015625 467.43920898 C-411.55418792 472.29657744 -419.05969714 473.90703467 -429.5703125 470.56420898 C-433.73431802 468.95994623 -437.6379321 466.91486993 -441.56640625 464.80639648 C-444.59735094 463.23853585 -444.59735094 463.23853585 -449.328125 462.50170898 C-449.328125 431.48170898 -449.328125 400.46170898 -449.328125 368.50170898 C-441.43581731 368.50170898 -441.43581731 368.50170898 -437.390625 370.25170898 C-436.5346875 370.61264648 -435.67875 370.97358398 -434.796875 371.34545898 C-432.58277249 372.38244371 -430.50909466 373.53619361 -428.390625 374.75170898 C-423.4186918 377.22773172 -418.75818528 377.58632154 -413.328125 376.50170898 C-408.75781193 374.49971315 -404.56638362 372.14304027 -400.328125 369.50170898 C-400.81023437 368.97061523 -401.29234375 368.43952148 -401.7890625 367.89233398 C-402.42070312 367.18592773 -403.05234375 366.47952148 -403.703125 365.75170898 C-404.64285156 364.70756836 -404.64285156 364.70756836 -405.6015625 363.64233398 C-409.96545726 358.23189433 -409.96191433 353.27218868 -409.328125 346.50170898 C-407.91636418 342.73701346 -406.78105162 341.79081108 -403.390625 339.62670898 C-400.17733762 338.4463177 -399.42561158 338.52496376 -396.328125 339.50170898 C-396.37453125 340.08178711 -396.4209375 340.66186523 -396.46875 341.25952148 C-396.66354112 345.47535782 -396.53974952 348.05404174 -394.703125 351.93920898 C-391.85139946 355.01607075 -390.46442367 355.81232587 -386.328125 356.50170898 C-380.26947965 356.48106624 -374.88342356 355.26406361 -369.23828125 353.12280273 C-367.328125 352.50170898 -367.328125 352.50170898 -364.328125 352.50170898 C-368.82634708 338.30856105 -376.10012083 328.00408585 -386.328125 317.50170898 C-386.93527344 316.80948242 -387.54242188 316.11725586 -388.16796875 315.40405273 C-393.98648168 308.93113493 -401.91436686 305.37442029 -410.203125 303.06420898 C-414.99412524 301.60948709 -417.67744946 298.66705626 -420.328125 294.50170898 C-422.004319 289.473127 -421.93455235 285.16140488 -420.140625 280.25170898 C-417.20899496 275.80371859 -413.52951996 272.80205772 -408.328125 271.50170898 C-402.33894848 271.40170418 -397.91673327 272.44665982 -393.328125 276.50170898 C-390.09853733 280.87115113 -388.85131179 285.01423878 -387.453125 290.25170898 C-383.67776067 303.99753357 -376.80351678 313.0438986 -365.15722656 321.14331055 C-364.25377502 321.77255432 -363.35032349 322.4017981 -362.41949463 323.05010986 C-361.72934265 323.52913757 -361.03919067 324.00816528 -360.328125 324.50170898 C-360.33256622 323.5903418 -360.33700745 322.67897461 -360.34158325 321.73999023 C-360.38211479 313.03552078 -360.41233585 304.33108425 -360.43174934 295.62654114 C-360.44206633 291.15438726 -360.45599614 286.6823131 -360.47900391 282.21020508 C-360.72885361 232.25262495 -360.72885361 232.25262495 -356.203125 211.00170898 C-355.98922119 209.97948242 -355.77531738 208.95725586 -355.55493164 207.90405273 C-347.62566706 171.81413647 -330.37455105 138.83947207 -305.34765625 111.70874023 C-303.58907593 109.78688746 -301.91992725 107.82523409 -300.265625 105.81420898 C-296.96731288 101.95124017 -293.20098563 98.7728359 -289.328125 95.50170898 C-287.95720703 94.28161133 -287.95720703 94.28161133 -286.55859375 93.03686523 C-255.33212722 65.46070316 -215.55433113 48.49619394 -174.328125 43.50170898 C-173.56129395 43.405271 -172.79446289 43.30883301 -172.00439453 43.20947266 C-165.22813579 42.43533437 -158.51754706 42.38538913 -151.703125 42.43920898 C-150.60355469 42.4437207 -149.50398438 42.44823242 -148.37109375 42.45288086 C-145.69004497 42.46453759 -143.00911568 42.48089881 -140.328125 42.50170898 C-140.37453125 41.42791992 -140.4209375 40.35413086 -140.46875 39.24780273 C-140.91821737 24.68027474 -140.91821737 24.68027474 -136.328125 19.50170898 C-131.03314471 15.88074024 -127.32738137 14.90827651 -120.98046875 15.00561523 C-120.20554581 15.00416 -119.43062286 15.00270477 -118.63221741 15.00120544 C-117.0043662 15.00285575 -115.37649797 15.01431912 -113.7487793 15.03515625 C-111.26868974 15.06417313 -108.79073431 15.05573559 -106.31054688 15.04272461 C-104.72134387 15.04896157 -103.13214755 15.05735218 -101.54296875 15.06811523 C-100.80843979 15.0651796 -100.07391083 15.06224396 -99.31712341 15.05921936 C-93.9041731 15.15762669 -89.76865306 16.32784195 -85.68359375 19.96655273 C-80.82631943 26.0909421 -81.328125 28.2817093 -81.328125 36.50170898 C-56.908125 36.50170898 -32.488125 36.50170898 -7.328125 36.50170898 C-7.328125 25.94170898 -7.328125 15.38170898 -7.328125 4.50170898 C-3.328125 0.50170898 -3.328125 0.50170898 0 0 Z " fill="#4F94FE" transform="translate(464.328125,19.498291015625)"/>
<path d="M0 0 C5.29382211 4.6782614 6.7841499 9.46347544 8.5625 16.125 C13.33702914 33.50871036 24.68982917 44.20910831 39.6875 53.375 C52.0907745 60.32314549 66.82120152 67.07271455 81.23046875 63.796875 C85.27178837 62.55744908 88.42368809 61.116602 91.6875 58.375 C92.3475 58.375 93.0075 58.375 93.6875 58.375 C95.75445266 54.11707753 95.95562221 50.20490218 96.0625 45.5625 C96.43028987 37.37570124 97.67775806 32.38474194 103.5 26.5625 C108.54614636 23.09945838 113.22978728 20.6759998 119.51171875 20.96875 C127.02380332 22.37136543 132.31906551 26.24452006 136.62890625 32.41015625 C139.28409324 37.33841845 139.55420994 43.1293207 138.12109375 48.49609375 C137.01080346 51.57119093 135.83529473 54.15604485 134 56.875 C132.035281 60.6173219 132.28616361 63.16096791 132.6875 67.375 C134.43003345 70.61113354 135.15935944 71.19895315 138.6875 72.375 C146.05145611 73.29465454 151.97912826 71.18973461 158.75 68.5 C172.15007555 63.30873185 189.5789121 57.40500078 203.6875 63.375 C206.67019461 65.4160878 209.144483 67.81711156 211.6875 70.375 C218.10655155 77.0459008 218.10655155 77.0459008 226.6875 79.375 C233.1775 80.035 233.1775 80.035 235.5625 81.625 C237.07213345 83.9733187 237.55413055 85.57424148 237.6875 88.375 C236.427747 91.22601994 235.32867799 92.9048028 232.8125 94.75 C229.98908614 95.58041584 228.46363862 95.34664852 225.6875 94.375 C223.31610993 92.30003369 221.37293281 90.01076431 219.3125 87.625 C216.87385309 85.18838414 216.87385309 85.18838414 213.8125 84.6875 C209.37521314 85.66370311 206.68660502 88.02733072 203.6875 91.375 C202.6507648 93.01906749 201.64217621 94.68196394 200.6875 96.375 C207.11869115 100.62870124 212.65604738 103.41574908 220.484375 103.046875 C225.69421515 101.95407926 230.13556823 99.58898028 234.75390625 97.00390625 C241.11445852 93.4721482 247.56866353 93.80704911 254.6875 94.375 C257.94365454 95.31718565 260.73715907 96.72414761 263.6875 98.375 C270.32710501 101.92892963 276.12367608 103.95962572 283.6875 102.375 C286.53384069 101.18764042 289.25938244 99.78674988 292 98.375 C300.56108267 93.99239407 307.9770873 92.50840398 317.49609375 95.15625 C320.72063486 96.37342838 323.70746146 97.80951967 326.69140625 99.53125 C332.34611871 102.72987523 337.2496026 103.71072781 343.6875 102.375 C346.51400582 101.18869018 349.21628067 99.78340125 351.9375 98.375 C359.92890757 94.32938856 366.65325112 92.45752677 375.6875 94.375 C379.45941562 95.8297333 383.03022527 97.65527277 386.6262207 99.49438477 C392.44816547 102.4277364 397.15842229 104.12715362 403.6875 102.375 C407.48088892 100.7550764 411.01171191 99.00015654 414.62109375 97.00390625 C419.95905374 94.1683275 422.22730386 94.375 428.6875 94.375 C428.6875 125.395 428.6875 156.415 428.6875 188.375 C425.3875 189.365 422.0875 190.355 418.6875 191.375 C416.55315433 192.35334317 414.44215934 193.38669903 412.375 194.5 C404.94631271 198.48709251 398.23954717 199.49474843 390 197.25 C385.92620459 195.96647542 382.32730911 194.19571469 378.5625 192.1875 C372.80140834 189.2259158 369.1766243 188.16568488 362.7734375 189.890625 C357.98596855 191.53095301 353.53893723 193.913006 349.08203125 196.2890625 C341.82702524 199.57926098 334.63376813 198.72354427 327.25 196.37109375 C323.85799484 195.05255516 320.79937659 193.35086582 317.6953125 191.4609375 C313.29858171 189.08293914 308.61967298 188.7412571 303.6875 189.375 C300.64319563 190.4159468 297.84770069 191.82375567 295 193.3125 C285.38454246 198.20902587 277.90208749 199.75273132 267.3203125 196.37109375 C263.67683947 194.99262844 260.25616863 193.28296252 256.81640625 191.4609375 C252.48955326 189.25384552 248.46458148 188.77928934 243.6875 189.375 C240.48937677 190.42119273 237.51803166 191.83257668 234.5 193.3125 C224.70250997 197.99684907 217.12379781 199.80955273 206.43359375 196.44140625 C203.33682162 195.23881906 200.49287586 193.75061348 197.5625 192.1875 C192.39761366 189.54239218 189.43817874 188.43226578 183.6875 189.375 C180.56589865 190.4866494 177.64761634 191.892429 174.6875 193.375 C164.83314859 197.98870123 157.13577981 199.81332789 146.43359375 196.44140625 C143.33682162 195.23881906 140.49287586 193.75061348 137.5625 192.1875 C131.80140834 189.2259158 128.1766243 188.16568488 121.7734375 189.890625 C116.98596855 191.53095301 112.53893723 193.913006 108.08203125 196.2890625 C100.82702524 199.57926098 93.63376813 198.72354427 86.25 196.37109375 C82.85799484 195.05255516 79.79937659 193.35086582 76.6953125 191.4609375 C72.29858171 189.08293914 67.61967298 188.7412571 62.6875 189.375 C59.64319563 190.4159468 56.84770069 191.82375567 54 193.3125 C44.38454246 198.20902587 36.90208749 199.75273132 26.3203125 196.37109375 C22.67683947 194.99262844 19.25616863 193.28296252 15.81640625 191.4609375 C11.49524635 189.25674951 7.45995886 188.77148915 2.6875 189.375 C-0.35745006 190.41428609 -3.15225004 191.82372991 -6 193.3125 C-15.53856292 198.16986845 -23.04407214 199.78032568 -33.5546875 196.4375 C-37.71869302 194.83323725 -41.6223071 192.78816094 -45.55078125 190.6796875 C-48.58172594 189.11182687 -48.58172594 189.11182687 -53.3125 188.375 C-53.3125 157.355 -53.3125 126.335 -53.3125 94.375 C-45.42019231 94.375 -45.42019231 94.375 -41.375 96.125 C-40.5190625 96.4859375 -39.663125 96.846875 -38.78125 97.21875 C-36.56714749 98.25573472 -34.49346966 99.40948462 -32.375 100.625 C-27.4030668 103.10102273 -22.74256028 103.45961256 -17.3125 102.375 C-12.74218693 100.37300417 -8.55075862 98.01633128 -4.3125 95.375 C-4.79460938 94.84390625 -5.27671875 94.3128125 -5.7734375 93.765625 C-6.40507813 93.05921875 -7.03671875 92.3528125 -7.6875 91.625 C-8.31398437 90.92890625 -8.94046875 90.2328125 -9.5859375 89.515625 C-13.94983226 84.10518535 -13.94628933 79.1454797 -13.3125 72.375 C-11.90073918 68.61030447 -10.76542662 67.6641021 -7.375 65.5 C-4.16171262 64.31960872 -3.40998658 64.39825477 -0.3125 65.375 C-0.35890625 65.95507812 -0.4053125 66.53515625 -0.453125 67.1328125 C-0.64791612 71.34864884 -0.52412452 73.92733275 1.3125 77.8125 C4.16422554 80.88936177 5.55120133 81.68561689 9.6875 82.375 C15.74614535 82.35435726 21.13220144 81.13735463 26.77734375 78.99609375 C28.6875 78.375 28.6875 78.375 31.6875 78.375 C27.18927792 64.18185207 19.91550417 53.87737686 9.6875 43.375 C9.08035156 42.68277344 8.47320312 41.99054688 7.84765625 41.27734375 C2.02914332 34.80442594 -5.89874186 31.24771131 -14.1875 28.9375 C-18.97850024 27.48277811 -21.66182446 24.54034728 -24.3125 20.375 C-25.988694 15.34641801 -25.91892735 11.03469589 -24.125 6.125 C-18.20897353 -2.85104016 -9.36165187 -4.59250847 0 0 Z " fill="#56B2FD" transform="translate(68.3125,293.625)"/>
<path d="M0 0 C1.94132812 0.00277954 1.94132812 0.00277954 3.921875 0.00561523 C4.96456543 0.00343239 4.96456543 0.00343239 6.02832031 0.00120544 C7.49418338 0.00286129 8.96006439 0.01438763 10.42578125 0.03515625 C12.66481647 0.06411768 14.9014829 0.05576004 17.140625 0.04272461 C18.5677198 0.04896254 19.99480714 0.05735392 21.421875 0.06811523 C23.36320312 0.08273804 23.36320312 0.08273804 25.34375 0.09765625 C29.01708763 0.5436197 30.18858975 0.81082076 32.671875 3.50170898 C33.07041317 6.30283505 33.20778518 8.71435221 33.17308044 11.51771545 C33.18138204 12.75676003 33.18138204 12.75676003 33.18985134 14.02083582 C33.20350387 16.79869851 33.18846406 19.57566984 33.17358398 22.35351562 C33.17736546 24.34083947 33.18286409 26.32816068 33.18995667 28.31547546 C33.20394994 33.72032991 33.19271472 39.1248674 33.17624545 44.52970433 C33.16242583 50.17690502 33.16885142 55.82408674 33.17237854 61.47129822 C33.17508289 70.95487597 33.16158496 80.43832732 33.13842773 89.921875 C33.11180897 100.89928067 33.11007251 111.87647504 33.1218161 122.85390192 C33.13257994 133.39863045 33.12641827 143.94328226 33.11226082 154.48800468 C33.10648967 158.9828109 33.10659252 163.47756117 33.11132622 167.97236824 C33.11608428 173.26076519 33.1060431 178.54892952 33.08437157 183.83728218 C33.07878778 185.78279333 33.07835288 187.72832676 33.08332443 189.67383957 C33.08924128 192.32038343 33.07684218 194.96620737 33.05955505 197.61268616 C33.06857012 198.77983543 33.06857012 198.77983543 33.07776731 199.97056347 C33.05219173 202.1092844 33.05219173 202.1092844 32.671875 205.50170898 C29.02129797 207.935427 26.26948082 207.80784422 22.046875 207.80249023 C21.30356934 207.80677536 20.56026367 207.81106049 19.79443359 207.81547546 C18.22429421 207.82121349 16.65412825 207.82172289 15.08398438 207.81738281 C12.68052951 207.81422037 10.2783029 207.83769516 7.875 207.86303711 C6.34895989 207.86530991 4.82291646 207.86601369 3.296875 207.86499023 C2.57806152 207.87419998 1.85924805 207.88340973 1.11865234 207.89289856 C-3.84988473 207.84676236 -3.84988473 207.84676236 -6.0202179 206.28085327 C-7.73704399 203.94545703 -7.6909402 202.54674675 -7.66870117 199.66308594 C-7.66833862 198.6686145 -7.66797607 197.67414307 -7.66760254 196.64953613 C-7.65225464 195.60688599 -7.63690674 194.56423584 -7.62109375 193.48999023 C-7.61807251 192.52975952 -7.61505127 191.56952881 -7.61193848 190.5802002 C-7.59623609 186.99142721 -7.55435211 183.40280736 -7.515625 179.81420898 C-7.45375 171.79108398 -7.391875 163.76795898 -7.328125 155.50170898 C-31.748125 155.50170898 -56.168125 155.50170898 -81.328125 155.50170898 C-81.328125 157.81170898 -81.328125 160.12170898 -81.328125 162.50170898 C-83.15114133 168.37587271 -85.49450569 171.00504821 -90.328125 174.50170898 C-93.48988199 176.08258748 -96.89716176 175.70696563 -100.37109375 175.73999023 C-101.1729158 175.74806198 -101.97473785 175.75613373 -102.80085754 175.76445007 C-104.50141233 175.77829351 -106.20199493 175.78901451 -107.90258789 175.796875 C-110.48833966 175.81402798 -113.07279259 175.85790245 -115.65820312 175.90209961 C-117.31249062 175.91223213 -118.96678897 175.92074648 -120.62109375 175.92749023 C-121.38802048 175.94499832 -122.1549472 175.96250641 -122.94511414 175.98054504 C-128.3404722 175.95903396 -132.11453233 174.93841394 -136.328125 171.50170898 C-141.2513835 165.10649381 -140.89638761 159.00132508 -140.84570312 151.15014648 C-140.85112994 149.80087531 -140.85825574 148.45161007 -140.86694336 147.10235596 C-140.88511355 143.45350751 -140.87813567 139.80511359 -140.86542702 136.15625763 C-140.85526643 132.329176 -140.86470116 128.50213206 -140.87097168 124.67504883 C-140.87823922 118.24935961 -140.86868397 111.82385458 -140.84960938 105.39819336 C-140.8278422 97.98003821 -140.83489422 90.56232289 -140.856915 83.14417839 C-140.87509459 76.7634754 -140.87761487 70.38290445 -140.86716032 64.00218391 C-140.86093939 60.19634929 -140.86005093 56.39072108 -140.87330627 52.5848999 C-140.88490166 49.00599433 -140.87677282 45.42765319 -140.85372925 41.84880829 C-140.84595836 39.91673041 -140.85776659 37.98460452 -140.87023926 36.05255127 C-140.80496742 29.33596224 -140.48312063 24.89494737 -136.328125 19.50170898 C-131.49069845 15.59006435 -127.07490013 14.91214866 -120.98046875 15.00561523 C-120.20554581 15.00416 -119.43062286 15.00270477 -118.63221741 15.00120544 C-117.0043662 15.00285575 -115.37649797 15.01431912 -113.7487793 15.03515625 C-111.26868974 15.06417313 -108.79073431 15.05573559 -106.31054688 15.04272461 C-104.72134387 15.04896157 -103.13214755 15.05735218 -101.54296875 15.06811523 C-100.80843979 15.0651796 -100.07391083 15.06224396 -99.31712341 15.05921936 C-93.9041731 15.15762669 -89.76865306 16.32784195 -85.68359375 19.96655273 C-80.82631943 26.0909421 -81.328125 28.2817093 -81.328125 36.50170898 C-56.908125 36.50170898 -32.488125 36.50170898 -7.328125 36.50170898 C-7.328125 25.94170898 -7.328125 15.38170898 -7.328125 4.50170898 C-3.328125 0.50170898 -3.328125 0.50170898 0 0 Z " fill="#E6E4FB" transform="translate(464.328125,19.498291015625)"/>
<path d="M0 0 C5.630625 0.0309375 5.630625 0.0309375 11.375 0.0625 C11.375 12.6025 11.375 25.1425 11.375 38.0625 C4.9709375 38.371875 4.9709375 38.371875 -1.5625 38.6875 C-47.29752635 41.54238347 -90.79516455 63.10074475 -121.625 97.0625 C-125.49394737 101.57674363 -129.09748368 106.27881872 -132.625 111.0625 C-133.0478125 111.63033203 -133.470625 112.19816406 -133.90625 112.78320312 C-152.57206463 138.18621022 -162.64283989 168.5992527 -162.83032227 200.02001953 C-162.84022186 201.06511185 -162.85012146 202.11020416 -162.86032104 203.18696594 C-162.89165188 206.60639256 -162.9165799 210.02583301 -162.94140625 213.4453125 C-162.96200038 215.82999003 -162.98299746 218.21466412 -163.00437927 220.59933472 C-163.05934611 226.8496215 -163.10886648 233.09993983 -163.15722656 239.35028076 C-163.20762794 245.73875711 -163.26321635 252.12718813 -163.31835938 258.515625 C-163.42563003 271.0312112 -163.52714295 283.5468369 -163.625 296.0625 C-170.42760137 299.46380069 -178.71514839 296.74379797 -185.5 294.5 C-203.29700215 288.39049785 -203.29700215 288.39049785 -208.625 283.0625 C-208.7301276 280.7667882 -208.76358207 278.46778562 -208.77026367 276.16967773 C-208.77362228 275.44730423 -208.7769809 274.72493073 -208.78044128 273.98066711 C-208.79000647 271.56912547 -208.79189934 269.15765326 -208.79296875 266.74609375 C-208.7961853 265.05623853 -208.79954967 263.36638358 -208.80305481 261.67652893 C-208.80906526 258.11108764 -208.81089353 254.54567061 -208.81030273 250.98022461 C-208.81022242 247.36786792 -208.81700315 243.75564059 -208.83081055 240.14331055 C-209.02035537 189.78818549 -209.02035537 189.78818549 -204.5 168.5625 C-204.28609619 167.54027344 -204.07219238 166.51804688 -203.85180664 165.46484375 C-195.92254206 129.37492748 -178.67142605 96.40026309 -153.64453125 69.26953125 C-151.88595093 67.34767848 -150.21680225 65.38602511 -148.5625 63.375 C-145.26418788 59.51203119 -141.49786063 56.33362691 -137.625 53.0625 C-136.71105469 52.24910156 -135.79710937 51.43570313 -134.85546875 50.59765625 C-103.62900222 23.02149417 -63.85120613 6.05698496 -22.625 1.0625 C-21.85816895 0.96606201 -21.09133789 0.86962402 -20.30126953 0.77026367 C-13.52512596 -0.00386146 -6.813838 -0.05338814 0 0 Z " fill="#497BFE" transform="translate(312.625,61.9375)"/>
<path d="M0 0 C5.29382211 4.6782614 6.7841499 9.46347544 8.5625 16.125 C13.33702914 33.50871036 24.68982917 44.20910831 39.6875 53.375 C52.0907745 60.32314549 66.82120152 67.07271455 81.23046875 63.796875 C85.27178837 62.55744908 88.42368809 61.116602 91.6875 58.375 C92.3475 58.375 93.0075 58.375 93.6875 58.375 C95.75445266 54.11707753 95.95562221 50.20490218 96.0625 45.5625 C96.43028987 37.37570124 97.67775806 32.38474194 103.5 26.5625 C108.54614636 23.09945838 113.22978728 20.6759998 119.51171875 20.96875 C127.02380332 22.37136543 132.31906551 26.24452006 136.62890625 32.41015625 C139.28409324 37.33841845 139.55420994 43.1293207 138.12109375 48.49609375 C137.01080346 51.57119093 135.83529473 54.15604485 134 56.875 C132.035281 60.6173219 132.28616361 63.16096791 132.6875 67.375 C134.43003345 70.61113354 135.15935944 71.19895315 138.6875 72.375 C146.05145611 73.29465454 151.97912826 71.18973461 158.75 68.5 C172.15007555 63.30873185 189.5789121 57.40500078 203.6875 63.375 C206.67019461 65.4160878 209.144483 67.81711156 211.6875 70.375 C218.10655155 77.0459008 218.10655155 77.0459008 226.6875 79.375 C233.1775 80.035 233.1775 80.035 235.5625 81.625 C237.07213345 83.9733187 237.55413055 85.57424148 237.6875 88.375 C236.427747 91.22601994 235.32867799 92.9048028 232.8125 94.75 C229.98908614 95.58041584 228.46363862 95.34664852 225.6875 94.375 C223.31610993 92.30003369 221.37293281 90.01076431 219.3125 87.625 C216.87385309 85.18838414 216.87385309 85.18838414 213.8125 84.6875 C208.27085066 85.90666285 204.81141362 89.72425188 201.6875 94.3125 C201.0275 94.993125 200.3675 95.67375 199.6875 96.375 C197.20741193 96.22315787 195.10028034 95.87294716 192.6875 95.375 C182.62010896 93.7683196 175.1732577 97.93573431 166.52758789 102.52709961 C161.55923401 104.81648438 155.82215015 105.49552434 150.62353516 103.63720703 C148.53717967 102.63869057 146.51816853 101.56728813 144.5 100.4375 C136.88593204 96.2902325 130.47462152 94.41759721 121.6875 95.375 C118.50212734 96.38948337 115.63458823 97.80852968 112.6875 99.375 C111.25146444 100.10704655 109.81402101 100.83633968 108.375 101.5625 C107.76011719 101.88605469 107.14523438 102.20960938 106.51171875 102.54296875 C102.11747167 104.54719707 97.43797009 105.29444582 92.6875 104.375 C89.05483886 102.77445034 85.63565824 101.00582667 82.15234375 99.1015625 C74.76014288 95.41796297 67.11519378 93.80339911 59.0703125 96.1328125 C55.13746234 97.65096439 51.45385377 99.44290601 47.8125 101.5625 C42.8382474 104.44756651 38.42460285 104.9478791 32.6875 104.375 C29.97599163 103.51813524 27.52006281 102.30804496 25 101 C22.5641818 99.78824817 20.12575828 98.58184228 17.6875 97.375 C16.88441406 96.9625 16.08132812 96.55 15.25390625 96.125 C12.26659544 95.25199593 9.64118765 95.39959885 6.55688477 95.60644531 C-2.97441277 96.2160834 -2.97441277 96.2160834 -6.91015625 93.7421875 C-8.69471908 91.68861413 -10.04512614 89.77818642 -11.3125 87.375 C-11.68890625 86.73949219 -12.0653125 86.10398437 -12.453125 85.44921875 C-14.50908555 80.4868776 -14.04044607 74.31618953 -12.1875 69.375 C-9.77858508 66.80549075 -7.61335075 65.58755742 -4.3125 64.375 C-2.12109375 64.8046875 -2.12109375 64.8046875 -0.3125 65.375 C-0.38210937 66.24511719 -0.38210937 66.24511719 -0.453125 67.1328125 C-0.64791612 71.34864884 -0.52412452 73.92733275 1.3125 77.8125 C4.16422554 80.88936177 5.55120133 81.68561689 9.6875 82.375 C15.74614535 82.35435726 21.13220144 81.13735463 26.77734375 78.99609375 C28.6875 78.375 28.6875 78.375 31.6875 78.375 C27.18927792 64.18185207 19.91550417 53.87737686 9.6875 43.375 C9.08035156 42.68277344 8.47320312 41.99054688 7.84765625 41.27734375 C2.02914332 34.80442594 -5.89874186 31.24771131 -14.1875 28.9375 C-18.97850024 27.48277811 -21.66182446 24.54034728 -24.3125 20.375 C-25.988694 15.34641801 -25.91892735 11.03469589 -24.125 6.125 C-18.20897353 -2.85104016 -9.36165187 -4.59250847 0 0 Z " fill="#56B2FE" transform="translate(68.3125,293.625)"/>
<path d="M0 0 C0.77492294 -0.00145523 1.54984589 -0.00291046 2.34825134 -0.00440979 C3.97610255 -0.00275948 5.60397078 0.00870389 7.23168945 0.02954102 C9.71177901 0.05855789 12.18973444 0.05012036 14.66992188 0.03710938 C16.25912488 0.04334633 17.8483212 0.05173695 19.4375 0.0625 C20.17202896 0.05956436 20.90655792 0.05662872 21.66334534 0.05360413 C27.07629565 0.15201146 31.21181569 1.32222671 35.296875 4.9609375 C39.13349152 9.79841051 39.77430789 12.95836488 39.79278564 19.01716614 C39.79849579 20.14004532 39.80420593 21.2629245 39.81008911 22.41983032 C39.81120697 23.64745087 39.81232483 24.87507141 39.81347656 26.13989258 C39.82092392 28.08437035 39.82092392 28.08437035 39.82852173 30.06813049 C39.84162314 33.6219688 39.84808624 37.17578824 39.85253239 40.72964692 C39.8554667 42.95157451 39.85957218 45.17349698 39.86403656 47.39542198 C39.87770541 54.35207431 39.88737512 61.3087149 39.89123845 68.26537973 C39.89571814 76.28706568 39.91326436 84.30858115 39.94223905 92.33021528 C39.96387677 98.53672692 39.97394384 104.74319068 39.97527957 110.94973963 C39.97632608 114.65389007 39.98220104 118.35788012 40.00009918 122.06199074 C40.01968725 126.19613568 40.01528259 130.32992506 40.00878906 134.46411133 C40.02261124 136.29643311 40.02261124 136.29643311 40.03671265 138.16577148 C40.00280179 145.05455136 39.87518952 150.83861484 35.1171875 156.23828125 C29.94605949 160.07364474 26.94648625 160.67413185 20.609375 160.734375 C19.80755295 160.74244675 19.0057309 160.75051849 18.17961121 160.75883484 C16.47905642 160.77267828 14.77847382 160.78339928 13.07788086 160.79125977 C10.49212909 160.80841275 7.90767616 160.85228721 5.32226562 160.89648438 C3.66797813 160.9066169 2.01367978 160.91513125 0.359375 160.921875 C-0.40755173 160.93938309 -1.17447845 160.95689117 -1.96464539 160.97492981 C-7.36000345 160.95341872 -11.13406358 159.93279871 -15.34765625 156.49609375 C-20.27091475 150.10087858 -19.91591886 143.99570984 -19.86523438 136.14453125 C-19.87066119 134.79526008 -19.87778699 133.44599484 -19.88647461 132.09674072 C-19.9046448 128.44789228 -19.89766692 124.79949836 -19.88495827 121.1506424 C-19.87479768 117.32356077 -19.88423241 113.49651683 -19.89050293 109.66943359 C-19.89777047 103.24374438 -19.88821522 96.81823935 -19.86914062 90.39257812 C-19.84737345 82.97442298 -19.85442547 75.55670765 -19.87644625 68.13856316 C-19.89462584 61.75786017 -19.89714612 55.37728921 -19.88669157 48.99656868 C-19.88047064 45.19073406 -19.87958218 41.38510585 -19.89283752 37.57928467 C-19.90443291 34.0003791 -19.89630407 30.42203795 -19.8732605 26.84319305 C-19.86548961 24.91111517 -19.87729784 22.97898929 -19.88977051 21.04693604 C-19.82449867 14.33034701 -19.50265188 9.88933214 -15.34765625 4.49609375 C-10.5102297 0.58444912 -6.09443138 -0.09346658 0 0 Z " fill="#DCDEFB" transform="translate(343.34765625,34.50390625)"/>
<path d="M0 0 C1.04269043 -0.00218285 1.04269043 -0.00218285 2.10644531 -0.00440979 C3.57230838 -0.00275395 5.03818939 0.0087724 6.50390625 0.02954102 C8.74294147 0.05850245 10.9796079 0.0501448 13.21875 0.03710938 C14.6458448 0.04334731 16.07293214 0.05173869 17.5 0.0625 C19.44132812 0.0771228 19.44132812 0.0771228 21.421875 0.09204102 C25.09521263 0.53800447 26.26671475 0.80520553 28.75 3.49609375 C29.14853817 6.29721981 29.28591018 8.70873697 29.25120544 11.51210022 C29.25950704 12.7511448 29.25950704 12.7511448 29.26797634 14.01522058 C29.28162887 16.79308327 29.26658906 19.57005461 29.25170898 22.34790039 C29.25549046 24.33522423 29.26098909 26.32254545 29.26808167 28.30986023 C29.28207494 33.71471467 29.27083972 39.11925217 29.25437045 44.5240891 C29.24055083 50.17128979 29.24697642 55.8184715 29.25050354 61.46568298 C29.25320789 70.94926074 29.23970996 80.43271208 29.21655273 89.91625977 C29.18993397 100.89366544 29.18819751 111.8708598 29.1999411 122.84828669 C29.21070494 133.39301522 29.20454327 143.93766702 29.19038582 154.48238945 C29.18461467 158.97719566 29.18471752 163.47194594 29.18945122 167.96675301 C29.19420928 173.25514995 29.1841681 178.54331429 29.16249657 183.83166695 C29.15691278 185.77717809 29.15647788 187.72271153 29.16144943 189.66822433 C29.16736628 192.31476819 29.15496718 194.96059214 29.13768005 197.60707092 C29.1436901 198.38517044 29.14970014 199.16326995 29.15589231 199.96494824 C29.13031673 202.10366917 29.13031673 202.10366917 28.75 205.49609375 C25.09942297 207.92981177 22.34760582 207.80222898 18.125 207.796875 C17.38169434 207.80116013 16.63838867 207.80544525 15.87255859 207.80986023 C14.30241921 207.81559826 12.73225325 207.81610766 11.16210938 207.81176758 C8.75865451 207.80860514 6.3564279 207.83207992 3.953125 207.85742188 C2.42708489 207.85969468 0.90104146 207.86039845 -0.625 207.859375 C-1.34381348 207.86858475 -2.06262695 207.87779449 -2.80322266 207.88728333 C-7.68157294 207.84198457 -7.68157294 207.84198457 -9.9391489 206.46823788 C-11.99128315 203.38085098 -11.66577785 200.15400801 -11.63768005 196.56947327 C-11.64306559 195.75302178 -11.64845113 194.9365703 -11.65399987 194.09537786 C-11.66834752 191.34997319 -11.66115906 188.60504606 -11.65405273 185.85961914 C-11.65975275 183.89524445 -11.66671558 181.93087307 -11.67485046 179.96650696 C-11.69283782 174.62356371 -11.69160301 169.28078419 -11.68590808 163.93781972 C-11.68282423 159.48184056 -11.68889971 155.02589322 -11.69494683 150.56991857 C-11.7090088 140.06001336 -11.7074169 129.55018939 -11.69604492 119.0402832 C-11.68456201 108.18785567 -11.69863856 97.33567521 -11.7254414 86.48328024 C-11.74757338 77.17451167 -11.75424142 67.86582079 -11.74836498 58.55702776 C-11.74498821 52.99345928 -11.74745816 47.43004919 -11.76461601 41.86650276 C-11.7800432 36.63551896 -11.77617663 31.40490211 -11.75731087 26.17393303 C-11.75361324 24.25183052 -11.75676744 22.32970107 -11.76719666 20.40762329 C-11.78032827 17.78788729 -11.76892935 15.16938019 -11.75120544 12.54969788 C-11.76081045 11.78520594 -11.77041546 11.02071401 -11.78031152 10.23305565 C-11.73208371 6.7795021 -11.5023798 4.83826192 -9.42668247 2.0241003 C-6.26808369 -0.19320043 -3.82872463 -0.00548186 0 0 Z " fill="#BF7D5A" transform="translate(468.25,19.50390625)"/>
<path d="M0 0 C7.72991193 0.47978764 12.94496588 2.58655366 19.69335938 6.20507812 C24.5525404 8.67713618 28.54067531 10.02881487 34 9 C37.07817453 7.9384293 39.92241845 6.55473098 42.8125 5.0625 C44.29763343 4.32312575 45.78328957 3.58480025 47.26953125 2.84765625 C48.23789917 2.3527771 48.23789917 2.3527771 49.22583008 1.84790039 C54.80283415 -0.81742714 60.97608752 -1.27366738 67 0 C71.2278136 1.60496244 75.22996364 3.63912353 79.19921875 5.79833984 C84.22578436 8.46923171 88.28485309 10.21584499 94 9 C97.37761536 7.73835606 100.54062959 6.13608925 103.75 4.5 C112.64676601 0.26801602 119.39541313 -2.14068268 129.109375 1.0078125 C133.66703412 2.81046872 137.95189025 4.97036597 142.25 7.3125 C146.13583071 9.27544541 149.70985517 9.80746072 154 9 C158.05510507 7.60091393 161.81243752 5.63133969 165.59375 3.62109375 C173.515789 -0.37407247 180.48679895 -1.75923752 189.109375 0.9921875 C192.9836576 2.57533344 196.72253847 4.36833261 200.47265625 6.22265625 C201.59994141 6.76212891 201.59994141 6.76212891 202.75 7.3125 C203.38421875 7.63863281 204.0184375 7.96476562 204.671875 8.30078125 C211.36071438 10.30967764 215.9106422 8.93591148 221.85009766 5.79785156 C222.64206543 5.36956055 223.4340332 4.94126953 224.25 4.5 C233.40822381 -0.12966573 240.43146048 -1.77731922 250.5 1.125 C255.19232077 2.88781379 259.5506734 5.33515332 263.91015625 7.79296875 C268.45977 9.57025149 272.47658886 9.91403626 277.05639648 8.25512695 C279.14931721 7.26439967 281.16712205 6.19352497 283.1875 5.0625 C291.48744443 0.54164598 299.26399235 -1.76556326 308.7421875 0.71875 C314.26333978 2.65819159 319.36151765 5.10687191 324.41796875 8.046875 C328.91195639 9.70577513 332.85388749 9.7931236 337.30688477 8.14746094 C339.79730008 6.98548739 342.24082752 5.75125984 344.6875 4.5 C352.5453907 0.79854442 359.22629758 -2.34366023 368 0 C372.18105461 1.7045283 376.23452273 3.64438279 380.20336914 5.79638672 C386.14587439 8.96463712 390.65796558 10.28466804 397.36328125 8.30078125 C398.00652344 7.97464844 398.64976562 7.64851563 399.3125 7.3125 C400.0653125 6.95285156 400.818125 6.59320313 401.59375 6.22265625 C403.26870324 5.37158423 404.93483395 4.50301749 406.59375 3.62109375 C414.515789 -0.37407247 421.48679895 -1.75923752 430.109375 0.9921875 C433.9836576 2.57533344 437.72253847 4.36833261 441.47265625 6.22265625 C442.59994141 6.76212891 442.59994141 6.76212891 443.75 7.3125 C444.38421875 7.63863281 445.0184375 7.96476562 445.671875 8.30078125 C453.45531717 10.6384258 458.74869312 8.12170421 465.5625 4.5 C471.29577386 1.46714822 475.43560042 -0.63441177 482 0 C482 2.64 482 5.28 482 8 C481.12601562 8.22042969 481.12601562 8.22042969 480.234375 8.4453125 C473.96666941 10.16006214 468.48379818 12.62418308 462.76171875 15.6953125 C455.44903311 19.14996173 448.27035475 18.43706383 440.74609375 16.06640625 C437.64932162 14.86381906 434.80537586 13.37561348 431.875 11.8125 C426.11390834 8.8509158 422.4891243 7.79068488 416.0859375 9.515625 C411.29846855 11.15595301 406.85143723 13.538006 402.39453125 15.9140625 C395.13952524 19.20426098 387.94626813 18.34854427 380.5625 15.99609375 C377.17049484 14.67755516 374.11187659 12.97586582 371.0078125 11.0859375 C366.61108171 8.70793914 361.93217298 8.3662571 357 9 C353.95569563 10.0409468 351.16020069 11.44875567 348.3125 12.9375 C338.69704246 17.83402587 331.21458749 19.37773132 320.6328125 15.99609375 C316.98933947 14.61762844 313.56866863 12.90796252 310.12890625 11.0859375 C305.80205326 8.87884552 301.77708148 8.40428934 297 9 C293.80187677 10.04619273 290.83053166 11.45757668 287.8125 12.9375 C278.01500997 17.62184907 270.43629781 19.43455273 259.74609375 16.06640625 C256.64932162 14.86381906 253.80537586 13.37561348 250.875 11.8125 C245.71011366 9.16739218 242.75067874 8.05726578 237 9 C233.87839865 10.1116494 230.96011634 11.517429 228 13 C218.14564859 17.61370123 210.44827981 19.43832789 199.74609375 16.06640625 C196.64932162 14.86381906 193.80537586 13.37561348 190.875 11.8125 C185.11390834 8.8509158 181.4891243 7.79068488 175.0859375 9.515625 C170.29846855 11.15595301 165.85143723 13.538006 161.39453125 15.9140625 C154.13952524 19.20426098 146.94626813 18.34854427 139.5625 15.99609375 C136.17049484 14.67755516 133.11187659 12.97586582 130.0078125 11.0859375 C125.61108171 8.70793914 120.93217298 8.3662571 116 9 C112.95569563 10.0409468 110.16020069 11.44875567 107.3125 12.9375 C97.69704246 17.83402587 90.21458749 19.37773132 79.6328125 15.99609375 C75.98933947 14.61762844 72.56866863 12.90796252 69.12890625 11.0859375 C64.80774635 8.88174951 60.77245886 8.39648915 56 9 C52.95504994 10.03928609 50.16024996 11.44872991 47.3125 12.9375 C37.77393708 17.79486845 30.26842786 19.40532568 19.7578125 16.0625 C15.59380698 14.45823725 11.6901929 12.41316094 7.76171875 10.3046875 C5.12804659 9.0604916 2.86771782 8.42832944 0 8 C0 5.36 0 2.72 0 0 Z " fill="#497BFE" transform="translate(15,474)"/>
<path d="M0 0 C7.89487084 -0.68651051 14.19315451 2.38029357 20.9375 6.25 C25.92785898 8.7302383 30.54868877 9.06535778 36 8 C39.78290351 6.40078972 43.25132797 4.63159442 46.8359375 2.62890625 C53.2131577 -0.65418119 61.41832604 -1.41447652 68.328125 0.71875 C70.60227638 1.73311968 72.79781492 2.8376325 75 4 C85.25585776 9.31836549 85.25585776 9.31836549 96.43359375 8.23046875 C101.79893434 6.18069632 106.88603253 3.6018431 112 1 C119.47896548 -1.49298849 126.93648975 -0.11524766 134 3 C136.02519019 4.05417185 138.045808 5.11716033 140.0625 6.1875 C146.11369548 9.25517306 149.77027526 10.34643971 156.4296875 8.2265625 C161.79941461 6.18639262 166.88564812 3.60203868 172 1 C179.47896548 -1.49298849 186.93648975 -0.11524766 194 3 C196.02519019 4.05417185 198.045808 5.11716033 200.0625 6.1875 C206.05830786 9.22709412 209.71826862 10.36007938 216.32421875 8.26171875 C219.88584828 6.90304375 223.30170564 5.35724335 226.6953125 3.62109375 C234.82180007 -0.44215004 241.76515641 -1.48726352 250.5625 1.1875 C253.84313054 2.39737793 256.76677116 3.98033989 259.8125 5.6875 C265.59089878 8.59895825 270.63626337 9.2512534 277 8 C280.8657933 6.55224051 284.46954622 4.64141045 288.06640625 2.62890625 C294.42695852 -0.9028518 300.88116353 -0.56795089 308 0 C311.25615454 0.94218565 314.04965907 2.34914761 317 4 C323.63960501 7.55392963 329.43617608 9.58462572 337 8 C339.84634069 6.81264042 342.57188244 5.41174988 345.3125 4 C353.87358267 -0.38260593 361.2895873 -1.86659602 370.80859375 0.78125 C374.03313486 1.99842838 377.01996146 3.43451967 380.00390625 5.15625 C385.65861871 8.35487523 390.5621026 9.33572781 397 8 C399.82650582 6.81369018 402.52878067 5.40840125 405.25 4 C413.24140757 -0.04561144 419.96575112 -1.91747323 429 0 C432.77191562 1.4547333 436.34272527 3.28027277 439.9387207 5.11938477 C445.76066547 8.0527364 450.47092229 9.75215362 457 8 C460.79338892 6.3800764 464.32421191 4.62515654 467.93359375 2.62890625 C472.84444361 0.02021276 476.44347176 -0.10685631 482 0 C482 2.64 482 5.28 482 8 C480.741875 8.20625 479.48375 8.4125 478.1875 8.625 C473.06727265 9.7349227 468.9656974 12.01302996 464.48046875 14.66015625 C458.38504989 17.95264234 450.74165868 18.31898473 444 17 C441.14029476 15.89242075 438.49231229 14.48508929 435.8125 13 C428.57360816 8.99454908 423.08626932 7.4318261 414.83203125 9.55859375 C410.63356465 10.9959798 406.68795709 13.07810765 402.76171875 15.1328125 C396.85108785 18.04225831 390.40597637 17.80951144 384 17 C380.0757029 15.64756967 376.56550949 13.67039725 372.9609375 11.62890625 C367.26706477 8.49652508 361.40116438 8.0158016 355 9 C351.1407589 10.42480791 347.56142429 12.38300413 343.96875 14.37109375 C337.35096976 18.00216528 329.49722701 18.227673 322.23828125 16.24609375 C318.98580099 14.94408046 315.87863909 13.45547665 312.76953125 11.84375 C306.8178195 8.89422913 301.6115064 7.6946513 295 9 C291.18617521 10.5985606 287.68429262 12.37013984 284.06640625 14.37109375 C277.66302688 17.77263413 270.12141309 18.39328251 263 17 C260.14026492 15.89240919 257.49253649 14.48471655 254.8125 13 C248.43310616 9.48078107 243.42594105 7.38669651 236 9 C232.84147794 10.06347544 229.95396643 11.46601041 227 13 C219.13929525 16.97059489 211.79032345 18.56030509 203 17 C199.4366221 15.57845347 196.12235184 13.72378313 192.76904297 11.87084961 C186.29435771 8.38052783 181.02013279 7.70652435 173.83203125 9.55859375 C169.63356465 10.9959798 165.68795709 13.07810765 161.76171875 15.1328125 C155.85108785 18.04225831 149.40597637 17.80951144 143 17 C139.0757029 15.64756967 135.56550949 13.67039725 131.9609375 11.62890625 C129.4737342 10.26061631 127.75086398 9.45281712 125 9 C124.26265625 8.87496094 123.5253125 8.74992187 122.765625 8.62109375 C116.06726197 8.13223806 111.9406246 9.81528185 106.25 13 C98.47698202 17.2276085 91.90773362 18.75749677 83 17 C77.73118095 15.19760768 72.89761441 12.61834001 68 10 C62.79890301 8.266301 57.33850519 7.57713155 52.14746094 9.78955078 C50.1381883 10.82255807 48.16061656 11.89955793 46.1875 13 C37.84227228 17.5730937 30.54077992 18.79445265 21.15234375 16.21875 C17.300591 14.77797371 13.82534205 12.93419443 10.3125 10.8125 C6.59820238 8.78014847 4.15973279 8.33957002 0 8 C0 5.36 0 2.72 0 0 Z " fill="#497CFE" transform="translate(15,388)"/>
<path d="M0 0 C24.42 0 48.84 0 74 0 C74 17.49 74 34.98 74 53 C49.58 53 25.16 53 0 53 C0 35.51 0 18.02 0 0 Z " fill="#F0EEFC" transform="translate(383,56)"/>
<path d="M0 0 C6.45170038 -0.1019456 10.7759402 1.22170479 16.3125 4.5625 C23.03881405 8.3667268 28.37141014 9.61117242 36 8 C39.8322756 6.54812021 43.34544798 4.65023309 46.90625 2.62890625 C49.78317914 1.11415947 51.81283527 0.41124706 55 0 C56.24523437 -0.18755859 56.24523437 -0.18755859 57.515625 -0.37890625 C64.63255234 -0.85675709 69.31407763 0.80833094 75.5 4 C82.42647431 7.5087005 88.12266117 9.95902405 96 8 C99.79444715 6.39341493 103.28138953 4.65041204 106.87109375 2.62890625 C109.75996954 1.12495968 111.80787327 0.41255273 115 0 C116.24523437 -0.18755859 116.24523437 -0.18755859 117.515625 -0.37890625 C124.63273442 -0.85676931 129.31386918 0.80857827 135.5 4 C142.45548951 7.51990388 148.09270652 9.92120941 156 8 C160.05846901 6.49292599 163.91466785 4.62872134 167.75 2.62890625 C174.88184103 -0.94558619 182.99596903 -1.18567835 190.625 1.1875 C193.79652542 2.35507042 196.46189855 3.88604271 199.3125 5.6875 C204.74183058 8.8143396 209.88421236 8.89239739 216 8 C219.95238936 6.7581807 223.45989082 4.86339454 227.0625 2.84375 C233.85819429 -0.65403382 240.47467532 -1.32618427 248 0 C250.80240622 1.13365055 253.41927711 2.53795347 256.0625 4 C263.14999508 7.87082369 268.81485897 9.95241896 277 8 C279.88674908 6.80900333 282.65704143 5.41906964 285.4375 4 C293.04401156 0.12476098 299.36409377 -1.98702267 308 0 C311.49368155 1.47028682 314.78432098 3.29957562 318.10522461 5.11938477 C324.44834594 8.49260092 329.84785375 9.6372383 337 8 C340.82500348 6.53134492 344.3454051 4.65025743 347.90625 2.62890625 C350.78317914 1.11415947 352.81283527 0.41124706 356 0 C356.83015625 -0.12503906 357.6603125 -0.25007813 358.515625 -0.37890625 C365.63273442 -0.85676931 370.31386918 0.80857827 376.5 4 C383.45667279 7.5205027 389.09158077 9.91902893 397 8 C401.08935986 6.49421585 404.98230547 4.63363878 408.84765625 2.62890625 C415.51843862 -0.81807795 423.31882504 -1.37096626 430.57421875 0.75390625 C433.45980392 2.03806719 436.16368274 3.47329806 438.8359375 5.15625 C445.19408129 8.91211553 451.78801005 9.19810836 459 8 C463.32611112 6.07836778 467.08189044 3.6310011 471 1 C473.75078884 0.08307039 475.35948913 -0.10886083 478.1875 -0.0625 C480.0746875 -0.0315625 480.0746875 -0.0315625 482 0 C482 2.64 482 5.28 482 8 C481.38253906 8.08636719 480.76507813 8.17273438 480.12890625 8.26171875 C474.42266333 9.20841659 470.03341204 10.74866952 465.10546875 13.78125 C458.79405231 17.43461165 452.17455776 18.60021609 445 17 C440.80689124 15.38311319 436.82391838 13.36505313 432.88818359 11.2019043 C427.51121997 8.33157633 423.10699967 6.80980951 417 8 C413.75592888 9.22643409 410.78697604 10.83477392 407.75 12.5 C400.06914466 16.35532749 393.69717285 19.19461371 385 17 C379.70603535 15.01116028 374.67154108 12.52309802 369.69482422 9.84790039 C365.54456887 7.77157702 361.54565091 7.42630613 357 8 C353.93426323 9.03863862 351.11880328 10.44704714 348.25 11.9375 C346.77757475 12.6788341 345.30366264 13.41722401 343.828125 14.15234375 C343.1877832 14.48226318 342.54744141 14.81218262 341.88769531 15.15209961 C336.035763 17.78062534 328.78275025 18.16587277 322.66796875 16.28125 C320.39580673 15.26594157 318.20092262 14.16170115 316 13 C314.15477108 12.0654723 312.30015188 11.1492996 310.4375 10.25 C309.16712891 9.60804688 309.16712891 9.60804688 307.87109375 8.953125 C301.24986782 6.75505816 296.49478698 7.81524341 290.44921875 10.79492188 C289.72347656 11.17197266 288.99773437 11.54902344 288.25 11.9375 C286.77757475 12.6788341 285.30366264 13.41722401 283.828125 14.15234375 C283.1877832 14.48226318 282.54744141 14.81218262 281.88769531 15.15209961 C275.71785185 17.92342221 268.21623645 18.50214092 261.82910156 16.2265625 C257.34845535 14.31583917 253.00983522 12.13515334 248.71069336 9.84790039 C244.67450073 7.84737277 241.45580191 7.64066114 237 8 C232.91265902 9.4435139 229.06905197 11.47731946 225.1796875 13.37890625 C218.02635019 16.65674097 211.84355598 18.74497088 204 17 C199.85433204 15.32108598 195.86140614 13.34601575 191.93725586 11.20263672 C186.52380857 8.32843117 182.1374498 6.89068496 176 8 C172.88351289 9.04006802 170.0334953 10.41833058 167.125 11.9375 C165.6489486 12.67680256 164.17240595 13.41512535 162.6953125 14.15234375 C162.05609863 14.48226318 161.41688477 14.81218262 160.75830078 15.15209961 C155.29488114 17.78670894 149.91882382 17.90382888 144 17 C138.68727772 15.11103208 133.68092901 12.49219232 128.71069336 9.84790039 C124.54701723 7.78418593 120.55502492 7.42512306 116 8 C112.93426323 9.03863862 110.11880328 10.44704714 107.25 11.9375 C105.77757475 12.6788341 104.30366264 13.41722401 102.828125 14.15234375 C102.1877832 14.48226318 101.54744141 14.81218262 100.88769531 15.15209961 C94.80377691 17.88482705 87.94263133 18.49732688 81.66259766 16.11230469 C78.1454057 14.56692289 74.68276008 12.94228241 71.2578125 11.20166016 C65.79261141 8.49372595 62.11081789 7.18077417 56 8 C52.94452534 9.06738747 50.1190887 10.44689886 47.25 11.9375 C45.77757475 12.6788341 44.30366264 13.41722401 42.828125 14.15234375 C42.1877832 14.48226318 41.54744141 14.81218262 40.88769531 15.15209961 C34.98625882 17.80286124 27.72116136 18.15093613 21.5625 16.24609375 C19.31551739 15.25133582 17.15904489 14.17296177 15 13 C9.88379349 10.25541819 5.83161663 8.48596805 0 8 C0 5.36 0 2.72 0 0 Z " fill="#497CFD" transform="translate(15,433)"/>
<path d="M0 0 C1.88138672 -0.03480469 1.88138672 -0.03480469 3.80078125 -0.0703125 C4.85906128 -0.08989014 4.85906128 -0.08989014 5.9387207 -0.10986328 C9.84651606 0.0984167 12.66229822 1.70929855 15.4453125 4.39453125 C19.57692918 9.05735579 20.12201005 12.47732498 20.14044189 18.52107239 C20.14615204 19.64395157 20.15186218 20.76683075 20.15774536 21.92373657 C20.15886322 23.15135712 20.15998108 24.37897766 20.16113281 25.64379883 C20.16858017 27.5882766 20.16858017 27.5882766 20.17617798 29.57203674 C20.18927939 33.12587505 20.19574249 36.67969449 20.20018864 40.23355317 C20.20312295 42.45548076 20.20722843 44.67740323 20.21169281 46.89932823 C20.22536166 53.85598056 20.23503137 60.81262115 20.2388947 67.76928598 C20.24337439 75.79097193 20.26092061 83.8124874 20.2898953 91.83412153 C20.31153302 98.04063317 20.32160009 104.24709693 20.32293582 110.45364588 C20.32398233 114.15779632 20.32985729 117.86178637 20.34775543 121.56589699 C20.3673435 125.70004193 20.36293884 129.83383131 20.35644531 133.96801758 C20.37026749 135.80033936 20.37026749 135.80033936 20.3843689 137.66967773 C20.35045804 144.55845761 20.22284577 150.34252109 15.46484375 155.7421875 C10.29371574 159.57755099 7.2941425 160.1780381 0.95703125 160.23828125 C0.1552092 160.246353 -0.64661285 160.25442474 -1.47273254 160.26274109 C-3.17328733 160.27658453 -4.87386993 160.28730553 -6.57446289 160.29516602 C-9.16021466 160.312319 -11.74466759 160.35619346 -14.33007812 160.40039062 C-15.98436562 160.41052315 -17.63866397 160.4190375 -19.29296875 160.42578125 C-20.05989548 160.44328934 -20.8268222 160.46079742 -21.61698914 160.47883606 C-27.19419368 160.45659996 -30.41275475 159.2064956 -35 156 C-38.15973576 152.23069043 -39.21062446 149.19165141 -39.09765625 144.26171875 C-39.08355713 143.46080811 -39.06945801 142.65989746 -39.05493164 141.8347168 C-39.0368042 141.22926025 -39.01867676 140.62380371 -39 140 C-38.1529248 139.9906543 -37.30584961 139.98130859 -36.43310547 139.97167969 C-33.26805648 139.92747388 -30.10395188 139.86577473 -26.93945312 139.79248047 C-25.57401836 139.76438377 -24.20842436 139.74311323 -22.84277344 139.72900391 C-20.87145962 139.70742018 -18.90050369 139.6586454 -16.9296875 139.609375 C-15.74616699 139.58842773 -14.56264648 139.56748047 -13.34326172 139.54589844 C-9.28271293 138.88287908 -7.16100267 137.61016671 -4 135 C-1.40568882 131.38372327 -0.62266326 128.89129518 -0.60127258 124.46342468 C-0.58873444 123.36271133 -0.57619629 122.26199799 -0.5632782 121.12792969 C-0.56471329 119.93031006 -0.56614838 118.73269043 -0.56762695 117.4987793 C-0.5574353 116.23008499 -0.54724365 114.96139069 -0.53674316 113.6542511 C-0.50919713 110.1835606 -0.49989199 106.71303394 -0.49388909 103.2422483 C-0.48449911 99.61201995 -0.45829525 95.98191368 -0.43388367 92.35176086 C-0.39023205 85.48125396 -0.36167693 78.61077077 -0.33856028 71.74016744 C-0.3115014 63.91667178 -0.26759034 56.09329902 -0.22227156 48.26989114 C-0.12944448 32.17998974 -0.05775494 16.09006632 0 0 Z " fill="#D0CEF2" transform="translate(363,35)"/>
<path d="M0 0 C1.26328125 0.03609375 2.5265625 0.0721875 3.828125 0.109375 C5.27445312 0.17898437 5.27445312 0.17898437 6.75 0.25 C6.10019857 0.74389441 5.45039715 1.23778883 4.78090477 1.74664974 C2.01724257 5.15321739 2.19903643 8.10573143 2.25552368 12.30360413 C2.25069485 13.1216156 2.24586602 13.93962707 2.24089086 14.78242677 C2.22960668 17.52723108 2.24694872 20.27110647 2.26416016 23.01586914 C2.26201463 24.98201246 2.25813745 26.94815454 2.25265503 28.91429138 C2.24295061 34.25718537 2.25827831 39.59974588 2.27856112 44.94259953 C2.29610866 50.52792698 2.2926075 56.11324376 2.2918396 61.69859314 C2.29371341 71.07784619 2.31108898 80.45696992 2.33837891 89.83618164 C2.36983968 100.68915787 2.38037483 111.54199247 2.3789078 122.39501101 C2.37768823 132.82493438 2.38788946 143.2548115 2.40449142 153.68472099 C2.41156316 158.12844643 2.41521878 162.57215551 2.41627884 167.01588631 C2.41828404 172.24516442 2.43046354 177.47432307 2.45061111 182.70356178 C2.45646564 184.62607848 2.45891094 186.54860892 2.45775604 188.47113419 C2.45677845 191.0886774 2.46804798 193.70588319 2.48257446 196.32337952 C2.47947726 197.09010217 2.47638005 197.85682483 2.473189 198.6467815 C2.50770033 202.39383328 2.61685887 204.0502883 4.75 207.25 C2.64646505 207.3310206 0.54204048 207.38919907 -1.5625 207.4375 C-2.73425781 207.47230469 -3.90601563 207.50710937 -5.11328125 207.54296875 C-8.25 207.25 -8.25 207.25 -9.92181492 206.22710323 C-11.99528857 203.14058199 -11.6658487 199.91695344 -11.63768005 196.32337952 C-11.64306559 195.50692803 -11.64845113 194.69047655 -11.65399987 193.84928411 C-11.66834752 191.10387944 -11.66115906 188.35895231 -11.65405273 185.61352539 C-11.65975275 183.6491507 -11.66671558 181.68477932 -11.67485046 179.72041321 C-11.69283782 174.37746996 -11.69160301 169.03469044 -11.68590808 163.69172597 C-11.68282423 159.23574681 -11.68889971 154.77979947 -11.69494683 150.32382482 C-11.7090088 139.81391961 -11.7074169 129.30409564 -11.69604492 118.79418945 C-11.68456201 107.94176192 -11.69863856 97.08958146 -11.7254414 86.23718649 C-11.74757338 76.92841792 -11.75424142 67.61972704 -11.74836498 58.31093401 C-11.74498821 52.74736553 -11.74745816 47.18395544 -11.76461601 41.62040901 C-11.7800432 36.38942521 -11.77617663 31.15880836 -11.75731087 25.92783928 C-11.75361324 24.00573677 -11.75676744 22.08360732 -11.76719666 20.16152954 C-11.78032827 17.54179354 -11.76892935 14.92328644 -11.75120544 12.30360413 C-11.76081045 11.53911219 -11.77041546 10.77462026 -11.78031152 9.9869619 C-11.7321322 6.53688007 -11.49812682 4.58879859 -9.43449497 1.7710638 C-6.26351306 -0.43689084 -3.81104739 -0.1411499 0 0 Z " fill="#9F5D43" transform="translate(468.25,19.75)"/>
<path d="M0 0 C3 2.0625 3 2.0625 5 5 C5.66736322 9.15248226 5.51920237 11.15389243 3.3125 14.75 C1.01704895 16.98341183 -1.26303819 18.3726173 -4 20 C-5.20371769 23.61115306 -4.71183147 24.24109758 -3.125 27.5625 C-2.75632813 28.34753906 -2.38765625 29.13257813 -2.0078125 29.94140625 C-1.34414845 31.29703011 -0.67500608 32.64998784 0 34 C-0.59425781 34.19634033 -1.18851563 34.39268066 -1.80078125 34.5949707 C-4.53439791 35.49917925 -7.26720091 36.40582366 -10 37.3125 C-11.40185547 37.7755957 -11.40185547 37.7755957 -12.83203125 38.24804688 C-17.07977997 39.65901236 -21.29757752 41.09401104 -25.46875 42.71875 C-28.93239341 43.97547017 -31.35533248 44.27335006 -35 44 C-35 38.94704134 -34.02190324 36.69620969 -30.5 33.0625 C-23.89164974 26.14568097 -19.87986667 17.4746704 -15.4609375 9.07421875 C-15.04070312 8.28660156 -14.62046875 7.49898438 -14.1875 6.6875 C-13.68283203 5.70330078 -13.68283203 5.70330078 -13.16796875 4.69921875 C-9.88873619 -0.07157109 -5.55679539 -1.1553733 0 0 Z " fill="#487AFE" transform="translate(245,323)"/>
<path d="M0 0 C24.42 0 48.84 0 74 0 C74 3.63 74 7.26 74 11 C49.58 11 25.16 11 0 11 C0 7.37 0 3.74 0 0 Z " fill="#E9E7FC" transform="translate(383,164)"/>
<path d="M0 0 C24.42 0 48.84 0 74 0 C74 2.97 74 5.94 74 9 C49.58 9 25.16 9 0 9 C0 6.03 0 3.06 0 0 Z " fill="#E9E7FC" transform="translate(383,90)"/>
<path d="M0 0 C2.5 1.5 2.5 1.5 4 4 C4.791013 8.02098277 4.62153384 10.96411027 2.5 14.5 C-1.03588973 16.62153384 -3.97901723 16.791013 -8 16 C-10.5 14.5 -10.5 14.5 -12 12 C-12.791013 7.97901723 -12.62153384 5.03588973 -10.5 1.5 C-6.96411027 -0.62153384 -4.02098277 -0.791013 0 0 Z " fill="#4879FE" transform="translate(38,338)"/>
<path d="M0 0 C2.81972931 2.36493426 2.97850831 3.8280665 3.4375 7.5 C3 11 3 11 1.3125 13.375 C-1.33710827 15.23688689 -2.75713747 15.92278899 -6 16 C-11.63855422 13.72289157 -11.63855422 13.72289157 -13 11 C-13.45723173 4.8273717 -13.45723173 4.8273717 -11.6875 1.625 C-8.08559885 -1.8434974 -4.55940718 -1.05843381 0 0 Z " fill="#497AFE" transform="translate(261,289)"/>
<path d="M0 0 C2.31282587 3.46923881 2.42478586 4.92205575 2 9 C0.875 10.875 0.875 10.875 -1 12 C-4.65259739 12.54400387 -6.3433886 12.43774093 -9.4375 10.375 C-11 8 -11 8 -11 4.9375 C-10 2 -10 2 -8.3125 0.0625 C-5.13778084 -1.39615475 -3.30121799 -1.00471852 0 0 Z " fill="#56B1FE" transform="translate(172,287)"/>
<path d="M0 0 C3.4375 0.8125 3.4375 0.8125 5.4375 3.8125 C5.95069996 7.14829974 5.75972026 8.37093891 3.75 11.125 C1.4375 12.8125 1.4375 12.8125 -1.0625 13.3125 C-3.5625 12.8125 -3.5625 12.8125 -5.9375 11.25 C-7.5625 8.8125 -7.5625 8.8125 -7.5 5.1875 C-6.18854017 0.46624461 -4.85174935 -0.25535523 0 0 Z " fill="#4F92FE" transform="translate(130.5625,255.1875)"/>
<path d="M0 0 C1.8125 1.125 1.8125 1.125 3 3 C3.39769128 6.18153026 3.55198782 8.12844028 1.8125 10.875 C-0.65507108 12.40659584 -2.14519831 12.42822025 -5 12 C-6.8125 10.875 -6.8125 10.875 -8 9 C-8.39769128 5.81846974 -8.55198782 3.87155972 -6.8125 1.125 C-4.34492892 -0.40659584 -2.85480169 -0.42822025 0 0 Z " fill="#FBFCFF" transform="translate(132,316)"/>
<path d="M0 0 C2.375 0.75 2.375 0.75 3.375 1.75 C3.5625 4.1875 3.5625 4.1875 3.375 6.75 C2.715 7.41 2.055 8.07 1.375 8.75 C-1.75 8.375 -1.75 8.375 -4.625 7.75 C-5.3125 5.4375 -5.3125 5.4375 -5.625 2.75 C-3.9659358 -0.015107 -3.22812218 -0.30744021 0 0 Z " fill="#EEF4FF" transform="translate(193.625,262.25)"/>
<path d="M0 0 C1.26328125 0.03609375 2.5265625 0.0721875 3.828125 0.109375 C5.27445312 0.17898437 5.27445312 0.17898437 6.75 0.25 C2.90107607 2.81594929 0.6025634 2.30052842 -3.875 2.02734375 C-6.2404869 2.06047288 -6.2404869 2.06047288 -7.86645508 3.32177734 C-9.96024662 6.23985845 -9.68914607 8.76815719 -9.76171875 12.32421875 C-9.77966995 13.0080513 -9.79762115 13.69188385 -9.81611633 14.3964386 C-9.87022075 16.57673 -9.9041134 18.75680256 -9.9375 20.9375 C-9.9706732 22.41734817 -10.00516287 23.89716745 -10.04101562 25.37695312 C-10.12594524 29.00109169 -10.19275635 32.62530652 -10.25 36.25 C-10.58 36.25 -10.91 36.25 -11.25 36.25 C-11.34903473 31.76601216 -11.42154483 27.28260708 -11.46972656 22.79785156 C-11.48981599 21.27299915 -11.51709316 19.74822352 -11.55175781 18.22363281 C-11.60039796 16.02910402 -11.62299396 13.83559531 -11.640625 11.640625 C-11.66157227 10.32094727 -11.68251953 9.00126953 -11.70410156 7.64160156 C-11.25 4.25 -11.25 4.25 -9.44140625 1.8125 C-6.2702972 -0.44854032 -3.83988542 -0.14221798 0 0 Z " fill="#A86548" transform="translate(468.25,19.75)"/>
</svg>
